<svg width="381" height="109" viewBox="0 0 381 109" fill="none" xmlns="http://www.w3.org/2000/svg">
<path d="M28.8661 55.9942V88.3465H65.5095V55.9942L71.976 61.5936L79.8795 54.7499L73.413 48.5283L65.5095 41.6846H56.8875V42.6178V44.1732L56.169 45.7286L54.732 47.5951L52.2173 49.1505L48.984 50.0837H45.7508L41.799 49.1505L39.2843 47.5951L37.4881 44.7954V42.6178H26.7106L14.4961 54.7499L22.7588 61.5936L28.8661 55.9942Z" stroke="white" stroke-width="3"/>
<path d="M3 92.0796H90.6569L89.0845 97.1161L86.7261 100.138L82.7952 102.656H14.0062H9.28928L5.35848 98.1234L3 92.0796Z" stroke="white" stroke-width="3"/>
<path d="M27.7881 29.7417C29.7642 29.7419 31.2393 31.1151 31.2393 32.6636C31.2393 34.212 29.7642 35.5853 27.7881 35.5854C25.8117 35.5854 24.3359 34.2121 24.3359 32.6636C24.3359 31.115 25.8117 29.7417 27.7881 29.7417Z" fill="white" stroke="#DAA520"/>
<path d="M64.4307 29.7417C66.4068 29.7419 67.8818 31.1151 67.8818 32.6636C67.8818 34.212 66.4068 35.5853 64.4307 35.5854C62.4543 35.5854 60.9785 34.2121 60.9785 32.6636C60.9785 31.115 62.4543 29.7417 64.4307 29.7417Z" fill="white" stroke="#DAA520"/>
<path d="M87.7834 88.346H67.6654V60.3489L71.9764 62.8375L81.3169 55.3716L67.6654 39.8176H56.1694C53.918 47.6634 49.7029 47.2835 44.6734 47.2835C39.6439 47.2835 38.2069 39.8176 38.2069 39.8176H26.711L12.341 55.3716L23.837 62.8375L26.711 60.3489V88.346H4.4375L12.341 24.2637H81.3169L87.7834 88.346Z" stroke="white" stroke-width="3"/>
<mask id="path-6-inside-1_913_355" fill="white">
<path d="M46.4697 0C60.1599 0 71.2578 10.7242 71.2578 23.9531C71.2578 24.4758 71.2382 24.9944 71.2041 25.5088H21.7354C21.7012 24.9944 21.6816 24.4758 21.6816 23.9531C21.6816 10.7242 32.7797 8.51803e-05 46.4697 0Z"/>
</mask>
<path d="M46.4697 0C60.1599 0 71.2578 10.7242 71.2578 23.9531C71.2578 24.4758 71.2382 24.9944 71.2041 25.5088H21.7354C21.7012 24.9944 21.6816 24.4758 21.6816 23.9531C21.6816 10.7242 32.7797 8.51803e-05 46.4697 0Z" fill="white"/>
<path d="M46.4697 0V-3H46.4697L46.4697 0ZM71.2578 23.9531L74.2578 23.9531V23.9531H71.2578ZM71.2041 25.5088V28.5088H74.0117L74.1975 25.7074L71.2041 25.5088ZM21.7354 25.5088L18.7419 25.7074L18.9278 28.5088H21.7354V25.5088ZM21.6816 23.9531H18.6816V23.9531L21.6816 23.9531ZM46.4697 0V3C58.6007 3 68.2578 12.4771 68.2578 23.9531H71.2578H74.2578C74.2578 8.97128 61.719 -3 46.4697 -3V0ZM71.2578 23.9531L68.2578 23.9531C68.2578 24.4011 68.241 24.8529 68.2107 25.3102L71.2041 25.5088L74.1975 25.7074C74.2354 25.136 74.2578 24.5506 74.2578 23.9531L71.2578 23.9531ZM71.2041 25.5088V22.5088H21.7354V25.5088V28.5088H71.2041V25.5088ZM21.7354 25.5088L24.7288 25.3102C24.6984 24.8529 24.6816 24.4011 24.6816 23.9531L21.6816 23.9531L18.6816 23.9531C18.6816 24.5506 18.704 25.136 18.7419 25.7074L21.7354 25.5088ZM21.6816 23.9531H24.6816C24.6816 12.4772 34.3388 3.00008 46.4697 3L46.4697 0L46.4697 -3C31.2205 -2.99991 18.6816 8.97132 18.6816 23.9531H21.6816Z" fill="white" mask="url(#path-6-inside-1_913_355)"/>
<mask id="path-8-inside-2_913_355" fill="white">
<path d="M46.5742 3.1167C56.2802 3.35671 64.0731 11.1089 64.0732 20.6372L64.0674 21.0903C64.0614 21.3197 64.0491 21.5478 64.0342 21.7749H61.0264C61.0565 21.3992 61.0732 21.0199 61.0732 20.6372C61.0731 12.6838 54.4443 6.11129 46.1113 6.11084C37.778 6.11084 31.1486 12.6835 31.1484 20.6372C31.1484 21.0198 31.1642 21.3992 31.1943 21.7749H28.1865C28.1716 21.5478 28.1603 21.3197 28.1543 21.0903L28.1484 20.6372C28.1486 10.9576 36.191 3.11084 46.1113 3.11084L46.5742 3.1167Z"/>
</mask>
<path d="M46.5742 3.1167C56.2802 3.35671 64.0731 11.1089 64.0732 20.6372L64.0674 21.0903C64.0614 21.3197 64.0491 21.5478 64.0342 21.7749H61.0264C61.0565 21.3992 61.0732 21.0199 61.0732 20.6372C61.0731 12.6838 54.4443 6.11129 46.1113 6.11084C37.778 6.11084 31.1486 12.6835 31.1484 20.6372C31.1484 21.0198 31.1642 21.3992 31.1943 21.7749H28.1865C28.1716 21.5478 28.1603 21.3197 28.1543 21.0903L28.1484 20.6372C28.1486 10.9576 36.191 3.11084 46.1113 3.11084L46.5742 3.1167Z" fill="white"/>
<path d="M46.5742 3.1167L46.6484 0.117616L46.6303 0.117169L46.6122 0.11694L46.5742 3.1167ZM64.0732 20.6372L67.073 20.676L67.0732 20.6566V20.6372L64.0732 20.6372ZM64.0674 21.0903L67.0664 21.1683L67.0669 21.1487L67.0671 21.1291L64.0674 21.0903ZM64.0342 21.7749V24.7749H66.8437L67.0277 21.9715L64.0342 21.7749ZM61.0264 21.7749L58.036 21.535L57.776 24.7749H61.0264V21.7749ZM61.0732 20.6372L64.0732 20.6372V20.6371L61.0732 20.6372ZM46.1113 6.11084L46.1115 3.11084H46.1113V6.11084ZM31.1484 20.6372L28.1484 20.6371L28.1484 20.6372L31.1484 20.6372ZM31.1943 21.7749V24.7749H34.4447L34.1847 21.535L31.1943 21.7749ZM28.1865 21.7749L25.193 21.9715L25.377 24.7749H28.1865V21.7749ZM28.1543 21.0903L25.1545 21.1291L25.1548 21.1487L25.1553 21.1683L28.1543 21.0903ZM28.1484 20.6372L25.1484 20.6372L25.1484 20.6566L25.1487 20.676L28.1484 20.6372ZM46.1113 3.11084L46.1493 0.11108L46.1303 0.11084H46.1113V3.11084ZM46.5742 3.1167L46.5001 6.11578C54.6502 6.31732 61.0731 12.8076 61.0732 20.6373L64.0732 20.6372L67.0732 20.6372C67.0731 9.41024 57.9102 0.396095 46.6484 0.117616L46.5742 3.1167ZM64.0732 20.6372L61.0735 20.5984L61.0676 21.0515L64.0674 21.0903L67.0671 21.1291L67.073 20.676L64.0732 20.6372ZM64.0674 21.0903L61.0684 21.0124C61.0638 21.1876 61.0541 21.3729 61.0406 21.5783L64.0342 21.7749L67.0277 21.9715C67.0441 21.7228 67.059 21.4518 67.0664 21.1683L64.0674 21.0903ZM64.0342 21.7749V18.7749H61.0264V21.7749V24.7749H64.0342V21.7749ZM61.0264 21.7749L64.0168 22.0148C64.0527 21.567 64.0732 21.1072 64.0732 20.6372L61.0732 20.6372L58.0732 20.6372C58.0732 20.9325 58.0603 21.2315 58.036 21.535L61.0264 21.7749ZM61.0732 20.6372L64.0732 20.6371C64.073 10.9621 56.0355 3.11138 46.1115 3.11084L46.1113 6.11084L46.1112 9.11084C52.853 9.1112 58.0731 14.4055 58.0732 20.6373L61.0732 20.6372ZM46.1113 6.11084V3.11084C36.1868 3.11084 28.1486 10.9617 28.1484 20.6371L31.1484 20.6372L34.1484 20.6373C34.1486 14.4053 39.3692 9.11084 46.1113 9.11084V6.11084ZM31.1484 20.6372L28.1484 20.6372C28.1484 21.1022 28.1676 21.5617 28.2039 22.0148L31.1943 21.7749L34.1847 21.535C34.1608 21.2368 34.1484 20.9375 34.1484 20.6372L31.1484 20.6372ZM31.1943 21.7749V18.7749H28.1865V21.7749V24.7749H31.1943V21.7749ZM28.1865 21.7749L31.1801 21.5783C31.1672 21.3827 31.158 21.1948 31.1533 21.0124L28.1543 21.0903L25.1553 21.1683C25.1625 21.4445 25.176 21.713 25.193 21.9715L28.1865 21.7749ZM28.1543 21.0903L31.154 21.0515L31.1482 20.5984L28.1484 20.6372L25.1487 20.676L25.1545 21.1291L28.1543 21.0903ZM28.1484 20.6372L31.1484 20.6373C31.1486 12.6836 37.7779 6.11084 46.1113 6.11084V3.11084V0.11084C34.6042 0.11084 25.1486 9.23163 25.1484 20.6372L28.1484 20.6372ZM46.1113 3.11084L46.0734 6.1106L46.5362 6.11646L46.5742 3.1167L46.6122 0.11694L46.1493 0.11108L46.1113 3.11084Z" fill="white" mask="url(#path-8-inside-2_913_355)"/>
<path d="M25.6338 26.6304C27.6099 26.6306 29.085 28.0038 29.085 29.5522C29.085 31.1007 27.6099 32.4739 25.6338 32.4741C23.6574 32.4741 22.1816 31.1008 22.1816 29.5522C22.1816 28.0037 23.6574 26.6304 25.6338 26.6304Z" fill="white" stroke="#DAA520"/>
<path d="M67.3057 26.6304C69.2818 26.6306 70.7568 28.0038 70.7568 29.5522C70.7568 31.1007 69.2818 32.4739 67.3057 32.4741C65.3293 32.4741 63.8535 31.1008 63.8535 29.5522C63.8535 28.0037 65.3293 26.6304 67.3057 26.6304Z" fill="white" stroke="#DAA520"/>
<path d="M25.2725 29.7417C25.8599 29.7417 26.2098 30.14 26.21 30.4858C26.21 30.8318 25.86 31.23 25.2725 31.23C24.6853 31.2298 24.3359 30.8317 24.3359 30.4858C24.3361 30.1401 24.6854 29.7419 25.2725 29.7417Z" fill="#DAA520" stroke="#DAA520"/>
<path d="M67.665 29.7417C68.2524 29.7417 68.6024 30.14 68.6025 30.4858C68.6025 30.8318 68.2525 31.23 67.665 31.23C67.0778 31.2298 66.7285 30.8317 66.7285 30.4858C66.7286 30.1401 67.0779 29.7419 67.665 29.7417Z" fill="#DAA520" stroke="#DAA520"/>
<line y1="-1.5" x2="4.54874" y2="-1.5" transform="matrix(-0.577101 0.816673 -0.883627 -0.468191 69.5684 26.1304)" stroke="#DAA520" stroke-width="3"/>
<line y1="-1.5" x2="4.37146" y2="-1.5" transform="matrix(0.177603 0.984102 -0.990968 0.134097 23.1172 25.5083)" stroke="#DAA520" stroke-width="3"/>
<path d="M140.279 27.4755V49.8115H135.799V35.2835L129.815 49.8115H126.423L120.407 35.2835V49.8115H115.927V27.4755H121.015L128.119 44.0835L135.223 27.4755H140.279ZM146.98 29.9715C146.191 29.9715 145.529 29.7262 144.996 29.2355C144.484 28.7235 144.228 28.0942 144.228 27.3475C144.228 26.6009 144.484 25.9822 144.996 25.4915C145.529 24.9795 146.191 24.7235 146.98 24.7235C147.769 24.7235 148.42 24.9795 148.932 25.4915C149.465 25.9822 149.732 26.6009 149.732 27.3475C149.732 28.0942 149.465 28.7235 148.932 29.2355C148.42 29.7262 147.769 29.9715 146.98 29.9715ZM149.188 32.0835V49.8115H144.708V32.0835H149.188ZM158.83 35.7635V44.3395C158.83 44.9369 158.969 45.3742 159.246 45.6515C159.545 45.9075 160.036 46.0355 160.718 46.0355H162.798V49.8115H159.982C156.206 49.8115 154.318 47.9769 154.318 44.3075V35.7635H152.206V32.0835H154.318V27.6995H158.83V32.0835H162.798V35.7635H158.83ZM182.757 32.0835V49.8115H178.245V47.5715C177.669 48.3395 176.911 48.9475 175.973 49.3955C175.055 49.8222 174.053 50.0355 172.965 50.0355C171.578 50.0355 170.351 49.7475 169.285 49.1715C168.218 48.5742 167.375 47.7102 166.757 46.5795C166.159 45.4275 165.861 44.0622 165.861 42.4835V32.0835H170.341V41.8435C170.341 43.2515 170.693 44.3395 171.397 45.1075C172.101 45.8542 173.061 46.2275 174.277 46.2275C175.514 46.2275 176.485 45.8542 177.189 45.1075C177.893 44.3395 178.245 43.2515 178.245 41.8435V32.0835H182.757ZM209.193 31.8275C211.369 31.8275 213.118 32.4995 214.441 33.8435C215.785 35.1662 216.457 37.0222 216.457 39.4115V49.8115H211.977V40.0195C211.977 38.6329 211.625 37.5769 210.921 36.8515C210.217 36.1049 209.257 35.7315 208.041 35.7315C206.825 35.7315 205.854 36.1049 205.129 36.8515C204.425 37.5769 204.073 38.6329 204.073 40.0195V49.8115H199.593V40.0195C199.593 38.6329 199.241 37.5769 198.537 36.8515C197.833 36.1049 196.873 35.7315 195.657 35.7315C194.419 35.7315 193.438 36.1049 192.713 36.8515C192.009 37.5769 191.657 38.6329 191.657 40.0195V49.8115H187.177V32.0835H191.657V34.2275C192.233 33.4809 192.969 32.8942 193.865 32.4675C194.782 32.0409 195.785 31.8275 196.873 31.8275C198.259 31.8275 199.497 32.1262 200.585 32.7235C201.673 33.2995 202.515 34.1315 203.113 35.2195C203.689 34.1955 204.521 33.3742 205.609 32.7555C206.718 32.1369 207.913 31.8275 209.193 31.8275ZM225.188 34.6755C225.764 33.8222 226.553 33.1289 227.556 32.5955C228.58 32.0622 229.743 31.7955 231.044 31.7955C232.559 31.7955 233.924 32.1689 235.14 32.9155C236.377 33.6622 237.348 34.7289 238.052 36.1155C238.777 37.4809 239.14 39.0702 239.14 40.8835C239.14 42.6969 238.777 44.3075 238.052 45.7155C237.348 47.1022 236.377 48.1795 235.14 48.9475C233.924 49.7155 232.559 50.0995 231.044 50.0995C229.721 50.0995 228.559 49.8435 227.556 49.3315C226.575 48.7982 225.785 48.1155 225.188 47.2835V49.8115H220.708V26.1315H225.188V34.6755ZM234.564 40.8835C234.564 39.8169 234.34 38.8995 233.892 38.1315C233.465 37.3422 232.889 36.7449 232.164 36.3395C231.46 35.9342 230.692 35.7315 229.86 35.7315C229.049 35.7315 228.281 35.9449 227.556 36.3715C226.852 36.7769 226.276 37.3742 225.828 38.1635C225.401 38.9529 225.188 39.8809 225.188 40.9475C225.188 42.0142 225.401 42.9422 225.828 43.7315C226.276 44.5209 226.852 45.1289 227.556 45.5555C228.281 45.9609 229.049 46.1635 229.86 46.1635C230.692 46.1635 231.46 45.9502 232.164 45.5235C232.889 45.0969 233.465 44.4889 233.892 43.6995C234.34 42.9102 234.564 41.9715 234.564 40.8835ZM241.243 40.8835C241.243 39.0915 241.595 37.5022 242.299 36.1155C243.025 34.7289 243.996 33.6622 245.212 32.9155C246.449 32.1689 247.825 31.7955 249.34 31.7955C250.662 31.7955 251.814 32.0622 252.796 32.5955C253.798 33.1289 254.598 33.8009 255.196 34.6115V32.0835H259.708V49.8115H255.196V47.2195C254.62 48.0515 253.82 48.7449 252.796 49.2995C251.793 49.8329 250.63 50.0995 249.308 50.0995C247.814 50.0995 246.449 49.7155 245.212 48.9475C243.996 48.1795 243.025 47.1022 242.299 45.7155C241.595 44.3075 241.243 42.6969 241.243 40.8835ZM255.196 40.9475C255.196 39.8595 254.982 38.9315 254.556 38.1635C254.129 37.3742 253.553 36.7769 252.828 36.3715C252.102 35.9449 251.324 35.7315 250.492 35.7315C249.66 35.7315 248.892 35.9342 248.188 36.3395C247.484 36.7449 246.908 37.3422 246.46 38.1315C246.033 38.8995 245.82 39.8169 245.82 40.8835C245.82 41.9502 246.033 42.8889 246.46 43.6995C246.908 44.4889 247.484 45.0969 248.188 45.5235C248.913 45.9502 249.681 46.1635 250.492 46.1635C251.324 46.1635 252.102 45.9609 252.828 45.5555C253.553 45.1289 254.129 44.5315 254.556 43.7635C254.982 42.9742 255.196 42.0355 255.196 40.9475Z" fill="white"/>
<path d="M149.119 79.9554C149.119 80.3554 149.093 80.7154 149.039 81.0354H140.939C141.006 81.8354 141.286 82.462 141.779 82.9154C142.273 83.3687 142.879 83.5954 143.599 83.5954C144.639 83.5954 145.379 83.1487 145.819 82.2554H148.839C148.519 83.322 147.906 84.202 146.999 84.8954C146.093 85.5754 144.979 85.9154 143.659 85.9154C142.593 85.9154 141.633 85.682 140.779 85.2154C139.939 84.7354 139.279 84.062 138.799 83.1954C138.333 82.3287 138.099 81.3287 138.099 80.1954C138.099 79.0487 138.333 78.042 138.799 77.1754C139.266 76.3087 139.919 75.642 140.759 75.1754C141.599 74.7087 142.566 74.4754 143.659 74.4754C144.713 74.4754 145.653 74.702 146.479 75.1554C147.319 75.6087 147.966 76.2554 148.419 77.0954C148.886 77.922 149.119 78.8754 149.119 79.9554ZM146.219 79.1554C146.206 78.4354 145.946 77.862 145.439 77.4354C144.933 76.9954 144.313 76.7754 143.579 76.7754C142.886 76.7754 142.299 76.9887 141.819 77.4154C141.353 77.8287 141.066 78.4087 140.959 79.1554H146.219ZM155.983 85.8754C155.01 85.8754 154.13 85.7087 153.343 85.3754C152.57 85.042 151.957 84.562 151.503 83.9354C151.05 83.3087 150.817 82.5687 150.803 81.7154H153.803C153.843 82.2887 154.043 82.742 154.403 83.0754C154.777 83.4087 155.283 83.5754 155.923 83.5754C156.577 83.5754 157.09 83.422 157.463 83.1154C157.837 82.7954 158.023 82.382 158.023 81.8754C158.023 81.462 157.897 81.122 157.643 80.8554C157.39 80.5887 157.07 80.382 156.683 80.2354C156.31 80.0754 155.79 79.902 155.123 79.7154C154.217 79.4487 153.477 79.1887 152.903 78.9354C152.343 78.6687 151.857 78.2754 151.443 77.7554C151.043 77.222 150.843 76.5154 150.843 75.6354C150.843 74.8087 151.05 74.0887 151.463 73.4754C151.877 72.862 152.457 72.3954 153.203 72.0754C153.95 71.742 154.803 71.5754 155.763 71.5754C157.203 71.5754 158.37 71.9287 159.263 72.6354C160.17 73.3287 160.67 74.302 160.763 75.5554H157.683C157.657 75.0754 157.45 74.682 157.063 74.3754C156.69 74.0554 156.19 73.8954 155.563 73.8954C155.017 73.8954 154.577 74.0354 154.243 74.3154C153.923 74.5954 153.763 75.002 153.763 75.5354C153.763 75.9087 153.883 76.222 154.123 76.4754C154.377 76.7154 154.683 76.9154 155.043 77.0754C155.417 77.222 155.937 77.3954 156.603 77.5954C157.51 77.862 158.25 78.1287 158.823 78.3954C159.397 78.662 159.89 79.062 160.303 79.5954C160.717 80.1287 160.923 80.8287 160.923 81.6954C160.923 82.442 160.73 83.1354 160.343 83.7754C159.957 84.4154 159.39 84.9287 158.643 85.3154C157.897 85.6887 157.01 85.8754 155.983 85.8754ZM162.631 80.1554C162.631 79.0354 162.851 78.042 163.291 77.1754C163.744 76.3087 164.351 75.642 165.111 75.1754C165.884 74.7087 166.744 74.4754 167.691 74.4754C168.517 74.4754 169.237 74.642 169.851 74.9754C170.477 75.3087 170.977 75.7287 171.351 76.2354V74.6554H174.171V85.7354H171.351V84.1154C170.991 84.6354 170.491 85.0687 169.851 85.4154C169.224 85.7487 168.497 85.9154 167.671 85.9154C166.737 85.9154 165.884 85.6754 165.111 85.1954C164.351 84.7154 163.744 84.042 163.291 83.1754C162.851 82.2954 162.631 81.2887 162.631 80.1554ZM171.351 80.1954C171.351 79.5154 171.217 78.9354 170.951 78.4554C170.684 77.962 170.324 77.5887 169.871 77.3354C169.417 77.0687 168.931 76.9354 168.411 76.9354C167.891 76.9354 167.411 77.062 166.971 77.3154C166.531 77.5687 166.171 77.942 165.891 78.4354C165.624 78.9154 165.491 79.4887 165.491 80.1554C165.491 80.822 165.624 81.4087 165.891 81.9154C166.171 82.4087 166.531 82.7887 166.971 83.0554C167.424 83.322 167.904 83.4554 168.411 83.4554C168.931 83.4554 169.417 83.3287 169.871 83.0754C170.324 82.8087 170.684 82.4354 170.951 81.9554C171.217 81.462 171.351 80.8754 171.351 80.1954ZM179.705 70.9354V85.7354H176.905V70.9354H179.705ZM192.772 79.9554C192.772 80.3554 192.745 80.7154 192.692 81.0354H184.592C184.658 81.8354 184.938 82.462 185.432 82.9154C185.925 83.3687 186.532 83.5954 187.252 83.5954C188.292 83.5954 189.032 83.1487 189.472 82.2554H192.492C192.172 83.322 191.558 84.202 190.652 84.8954C189.745 85.5754 188.632 85.9154 187.312 85.9154C186.245 85.9154 185.285 85.682 184.432 85.2154C183.592 84.7354 182.932 84.062 182.452 83.1954C181.985 82.3287 181.752 81.3287 181.752 80.1954C181.752 79.0487 181.985 78.042 182.452 77.1754C182.918 76.3087 183.572 75.642 184.412 75.1754C185.252 74.7087 186.218 74.4754 187.312 74.4754C188.365 74.4754 189.305 74.702 190.132 75.1554C190.972 75.6087 191.618 76.2554 192.072 77.0954C192.538 77.922 192.772 78.8754 192.772 79.9554ZM189.872 79.1554C189.858 78.4354 189.598 77.862 189.092 77.4354C188.585 76.9954 187.965 76.7754 187.232 76.7754C186.538 76.7754 185.952 76.9887 185.472 77.4154C185.005 77.8287 184.718 78.4087 184.612 79.1554H189.872ZM199.056 85.9154C198.149 85.9154 197.336 85.7554 196.616 85.4354C195.896 85.102 195.322 84.6554 194.896 84.0954C194.482 83.5354 194.256 82.9154 194.216 82.2354H197.036C197.089 82.662 197.296 83.0154 197.656 83.2954C198.029 83.5754 198.489 83.7154 199.036 83.7154C199.569 83.7154 199.982 83.6087 200.276 83.3954C200.582 83.182 200.736 82.9087 200.736 82.5754C200.736 82.2154 200.549 81.9487 200.176 81.7754C199.816 81.5887 199.236 81.3887 198.436 81.1754C197.609 80.9754 196.929 80.7687 196.396 80.5554C195.876 80.342 195.422 80.0154 195.036 79.5754C194.662 79.1354 194.476 78.542 194.476 77.7954C194.476 77.182 194.649 76.622 194.996 76.1154C195.356 75.6087 195.862 75.2087 196.516 74.9154C197.182 74.622 197.962 74.4754 198.856 74.4754C200.176 74.4754 201.229 74.8087 202.016 75.4754C202.802 76.1287 203.236 77.0154 203.316 78.1354H200.636C200.596 77.6954 200.409 77.3487 200.076 77.0954C199.756 76.8287 199.322 76.6954 198.776 76.6954C198.269 76.6954 197.876 76.7887 197.596 76.9754C197.329 77.162 197.196 77.422 197.196 77.7554C197.196 78.1287 197.382 78.4154 197.756 78.6154C198.129 78.802 198.709 78.9954 199.496 79.1954C200.296 79.3954 200.956 79.602 201.476 79.8154C201.996 80.0287 202.442 80.362 202.816 80.8154C203.202 81.2554 203.402 81.842 203.416 82.5754C203.416 83.2154 203.236 83.7887 202.876 84.2954C202.529 84.802 202.022 85.202 201.356 85.4954C200.702 85.7754 199.936 85.9154 199.056 85.9154Z" fill="white"/>
</svg>
